# xmcd
# 
# Track frame offsets:
#     150
#     22170
#     41470
# 
# Disc length: 845
# 
# Revision: 4
# Processed by: cddbd v1.5.2PL0 Copyright (c) Steve Scherf et al.
# Submitted via: fre:ac v1.0.31
# 
DISCID=1e034b03
DTITLE=T.M.Revolution - THUNDERBIRD
DYEAR=1998
DGENRE=J-Pop
TTITLE0=THUNDERBIRD
TTITLE1=アンタッチャブルGirls
TTITLE2=THUNDERBIRD 〜ORIGINAL BACKING TRACK〜
EXTD=YEAR: 1998
EXTT0=
EXTT1=
EXTT2=
PLAYORDER=
